<svg xmlns="http://www.w3.org/2000/svg" viewBox="0 0 400 500" style="enable-background:new 0 0 400 500" xml:space="preserve"><path style="fill:rgb(255,106,102,.09)" d="M152.5 476.3c-2.6-6.9-8.2-8.8-14.5-11-10.9-3.8-20.4-2.8-26.5 7.1-5.1 8.3-9.3 18-10.9 27.6h2.9c1.1-9.8 5.2-19.6 11.6-26.9 9.6-11.4 23.5-9.4 30 4.4-2.2 1.6-4.5 3.3-5.8 4.2.4 3.8.8 7.1 1.2 10.3 1.8-.5 3.8-1.3 5.4.2-1.4 2.5-2.6 5.3-4 7.8h7.3c2.3-2.7 6.1-5.6 2.2-10.2-.5-.7.2-2.4.4-3.6 1.5.4 3 .8 4.4 1.2 1-3 2-5.9 2.7-7.9-2.3-1.1-5.8-1.6-6.4-3.2zM85 85.8c-5 6.2-9.5 11.9-15.1 18.9-4.8-1.5-11.3-4.8-15.9-8-1.8 5.2-3.5 9.9-5.3 15 5.4 3.6 11.2 7.1 16.6 10.9 5.2 2.6 14.7.2 16.2-5.3 2.6-9.7 9.8-19 3.5-31.5zM15.6 388.2c16.8-7.3 22.3-24.3 33.1-36.5 2.7-3.1 2.3-9.1 2.7-13.9.1-1.1-2.1-2.4-3.9-4.5 18.6-3.7 27.4-25.4 48.8-26.2-2.7-1.4-5.5-2.8-9.7-4.9h12.2l1.2-1.8c-2.5-1.5-5.1-2.9-9.3-5.3 4.5-.5 6.4-.7 8.7-.9-5.3-6.3-13.8-5.6-21.4 0-9.6 7.2-19.7 13.7-29.7 20.2-2.6 1.3-6.2-1.4-5.8-4.1 3.1-8.1-3.6-7.7-8-9.5-13.1-6.2-9.4-5.1 1-10.7-3.3-4.9-6.8-7.4-11.8-11.3 1.8-.5 2.8-1.2 3.6-1 5.4 1.4 10.7 1.8 11.8-5.3 1-6.5-2.8-9.3-9.2-10.3-7.5-1.2-14.9-3.4-22.4-5.2.7-2.1 1.3-3.7 2-5.6-3.2-.2-6.4-.4-9.5-.6v165.5c.5-1.8 1-3.7 1.5-5.6 2.3-9.2 5.1-18.6 14.1-22.5z"/><path style="fill:rgb(255,106,102,.09)" d="M85 335.8c-5 6.2-9.5 11.9-15.1 18.9-4.8-1.5-11.3-4.8-15.9-8-1.8 5.2-3.5 9.9-5.3 15 5.4 3.6 11.2 7.1 16.6 10.9 5.2 2.6 14.7.2 16.2-5.3 2.6-9.7 9.8-19 3.5-31.5zM21 443.7c4.3-4.5 7 1.8 10.8 1.6 8.2-.3 16.5 0 24.7-.4 3.5-.3 6.8-6 9.6-6.8 8.2-1.6 11-8.1 15.8-14.4-16.8-3.1-30 13.6-46.7 5.2 3.2-10 5.7-20.2 6.5-30.6.4-7.8-4.7-11.8-12.5-11.3-12.9.9-16.1 3.5-15.2 12.6-10.2-.2-8.6 8.3-11.4 15 5.6 1.5 10.2 2.7 16.5 4.3-.2 9-3.2 16.5 1.9 24.8zM21 193.7c4.3-4.5 7 1.8 10.8 1.6 8.2-.3 16.5 0 24.7-.4 3.5-.3 6.8-6 9.6-6.8 8.2-1.6 11-8.1 15.8-14.4-16.8-3.1-30 13.6-46.7 5.2 3.2-10 5.7-20.2 6.5-30.6.4-7.8-4.7-11.8-12.5-11.3-12.9.9-16.1 3.5-15.2 12.6-10.2-.2-8.6 8.3-11.4 15 5.6 1.5 10.2 2.7 16.5 4.3-.2 9-3.2 16.5 1.9 24.8zM374.8 205.1c14.5-9.1 20.9-23.6 25.2-38.9V.7c-4.6-.3-9.1-.6-13.6-.7-2.6-.1-6.6 0-7.7 1.6-5 7-9.2 14.6-13.4 22.1-.6 1.1-.2 4.1.7 4.5 7.3 3.6 1 6.6.5 7.8 1.1 4 2.3 6.2 2.1 8.2-.4 4.4-1.9 8.7-2.4 13.1-.5 4.3.9 7.8 4.9 7.8l2.8-7c1.7 1.6 4.8 3.2 4.9 4.8.1 4.2-1.2 8.5-2 12.9 1.1-.4 2.7-.9 4.8-1.7-.1 4.1-5.4 8.7 2.6 11.2 2.1.7 3.3 6.2 3.8 9.7 1.3 8.7-2.3 15.7-9.3 21.1-9.1 7.1-16 15.2-19.3 27-3.9 13.8-15.6 21.2-27.9 20.3-33.9-3.1-34.6-44.3-16.4-65.3 9.6-11.4 23.5-9.4 30 4.4-2.2 1.6-4.5 3.3-5.8 4.2.4 3.8.8 7.1 1.2 10.3 1.8-.5 3.8-1.3 5.4.2-2.5 4.4-4.2 9.5-7.6 12.9-4.8 4.8-6.6 10.6-2.4 15.5 1.1 1.2 3.4 1.4 5.2 2 .6-1.6 1.1-3.3 1.7-4.9h-7c1.4-3.1 2-5.9 3.6-7.8 2.7-3.2 6.7-5.6 9.1-9 2.1-3.1 7.2-6 3-11.1-.5-.7.2-2.4.4-3.6 1.5.4 3 .8 4.4 1.2 1-3 2-5.9 2.7-7.9-2.3-1.1-5.7-1.6-6.3-3.2-2.6-6.9-8.2-8.8-14.5-11-10.9-3.8-20.4-2.8-26.5 7.1-5.3 8.7-9.7 18.8-11.1 28.8-4.3 30.3 22.7 50.3 51.2 38.4 7.4-4 11.2-13.2 15.5-20.3-5.9 13.7-7.6 27.4-3.5 41.8.5 1.7-.5 4.1-1.5 5.8-3.3 5.5-10.4 11.2-9.8 16.1 1.7 14.5-6.6 32.5 12.6 41.9.1-1.6.3-3.6.4-5.1h12.2c.3-1.8.6-3.7 1-6.4-13.2-.3-12-9.4-11.8-18.2 0-6.5 1.8-11.2 7.9-15.1z"/><path style="fill:rgb(255,106,102,.09)" d="M0 .7v165.5c.5-1.8 1-3.7 1.5-5.6 2.3-9.2 5.1-18.6 14.1-22.5 16.8-7.3 22.3-24.3 33.1-36.5 2.7-3.1 2.3-9.1 2.7-13.9.1-1.1-2.1-2.4-3.9-4.5 18.6-3.6 27.3-25.2 48.7-26-2.7-1.4-5.5-2.8-9.7-4.9h12.2l1.2-1.8c-2.5-1.5-5.1-2.9-9.3-5.3 4.5-.5 6.4-.7 8.7-.9-5.3-6.3-13.8-5.6-21.4 0-9.6 7.2-19.7 13.7-29.7 20.2-2.6 1.3-6.2-1.4-5.8-4.1 3.1-8.1-3.6-7.7-8-9.5-13.1-6.2-9.4-5.1 1-10.7-3.3-4.9-6.8-7.4-11.8-11.3 1.8-.5 2.8-1.2 3.6-1 5.4 1.4 10.7 1.8 11.8-5.3 1-6.5-2.8-9.3-9.2-10.3C22.4 11 15 8.8 7.5 7c.7-2.1 1.3-3.7 2-5.6C6.2 1.2 3.1 1 0 .7zM251.4 462.8c.1-1.1-2.1-2.4-3.9-4.5 18.6-3.7 27.4-25.4 48.8-26.2-2.7-1.4-5.5-2.8-9.7-4.9h12.2l1.2-1.8c-2.5-1.5-5.1-2.9-9.3-5.3 4.5-.5 6.4-.7 8.7-.9-5.3-6.3-13.8-5.6-21.4 0-9.6 7.2-19.7 13.7-29.7 20.2-2.6 1.3-6.2-1.4-5.8-4.1 3.1-8.1-3.6-7.7-8-9.5-13.1-6.2-9.4-5.1 1-10.7-3.3-4.9-6.8-7.4-11.8-11.3 1.8-.5 2.8-1.2 3.6-1 5.4 1.4 10.7 1.8 11.8-5.3 1-6.5-2.8-9.3-9.2-10.3-7.6-1.1-14.9-3.3-22.5-5.1.7-2.1 1.3-3.7 2-5.6-8.1-.5-15.6-1.1-23.1-1.4-2.6-.1-6.6 0-7.7 1.6-5 7-9.2 14.6-13.4 22.1-.6 1.1-.2 4.1.7 4.5 7.3 3.6 1 6.6.5 7.8 1.1 4 2.3 6.2 2.1 8.2-.4 4.4-1.9 8.7-2.4 13.1-.5 4.3.9 7.8 4.9 7.8l2.8-7c1.7 1.6 4.8 3.2 4.9 4.8.1 4.2-1.2 8.5-2 12.9 1.1-.4 2.7-.9 4.8-1.7-.1 4.1-5.4 8.7 2.6 11.2 2.1.7 3.3 6.2 3.8 9.7 1.3 8.7-2.3 15.7-9.3 21.1-3.6 2.8-6.8 5.7-9.6 8.9h63c5.9-7.5 10.4-16.2 16.7-23.3 2.7-3.2 2.3-9.2 2.7-14zM202.7 289.6c5.6 1.5 10.2 2.7 16.5 4.3-.2 9-3.2 16.5 1.8 24.8 4.3-4.5 7 1.8 10.8 1.6 8.2-.3 16.5 0 24.7-.4 3.5-.3 6.8-6 9.6-6.8 8.2-1.6 11-8.1 15.8-14.4-16.8-3.1-30 13.6-46.7 5.2 3.2-10 5.7-20.2 6.5-30.6.4-7.8-4.7-11.8-12.5-11.3-12.9.9-16.1 3.5-15.2 12.6-10.1-.2-8.5 8.4-11.3 15zM148.4.9c.2-.3.5-.6.7-.9h-7.3c-1 1.9-2.2 3.6-3.6 5.1-4.8 4.8-6.6 10.6-2.4 15.5 1.1 1.2 3.4 1.4 5.2 2 .6-1.6 1.1-3.3 1.7-4.9h-7c1.4-3.1 2-5.9 3.6-7.8 2.8-3.2 6.7-5.5 9.1-9zM377.5 494.9c.3-1.8.6-3.7 1-6.4-13.2-.3-12-9.4-11.8-18.2.1-6.6 2-11.3 8.1-15.2 14.5-9.1 20.9-23.6 25.2-38.9V250.7c-4.6-.3-9.1-.6-13.6-.7-2.6-.1-6.6 0-7.7 1.6-5 7-9.2 14.6-13.4 22.1-.6 1.1-.2 4.1.7 4.5 7.3 3.6 1 6.6.5 7.8 1.1 4 2.3 6.2 2.1 8.2-.4 4.4-1.9 8.7-2.4 13.1-.5 4.3.9 7.8 4.9 7.8l2.8-7c1.7 1.6 4.8 3.2 4.9 4.8.1 4.2-1.2 8.5-2 12.9 1.1-.4 2.7-.9 4.8-1.7-.1 4.1-5.4 8.7 2.6 11.2 2.1.7 3.3 6.2 3.8 9.7 1.3 8.7-2.3 15.7-9.3 21.1-9.1 7.1-16 15.2-19.3 27-3.9 13.8-15.6 21.2-27.9 20.3-33.9-3.1-34.6-44.3-16.4-65.3 9.6-11.4 23.5-9.4 30 4.4-2.2 1.6-4.5 3.3-5.8 4.2.4 3.8.8 7.1 1.2 10.3 1.8-.5 3.8-1.3 5.4.2-2.5 4.4-4.2 9.5-7.6 12.9-4.8 4.8-6.6 10.6-2.4 15.5 1.1 1.2 3.4 1.4 5.2 2 .6-1.6 1.1-3.3 1.7-4.9h-7c1.4-3.1 2-5.9 3.6-7.8 2.7-3.2 6.7-5.6 9.1-9 2.1-3.1 7.2-6 3-11.1-.5-.7.2-2.4.4-3.6 1.5.4 3 .8 4.4 1.2 1-3 2-5.9 2.7-7.9-2.3-1.1-5.7-1.6-6.3-3.2-2.6-6.9-8.2-8.8-14.5-11-10.9-3.8-20.4-2.8-26.5 7.1-5.3 8.7-9.7 18.8-11.1 28.8-4.3 30.3 22.7 50.3 51.2 38.4 7.4-4 11.2-13.2 15.5-20.3-5.9 13.7-7.6 27.4-3.5 41.8.5 1.7-.5 4.1-1.5 5.8-3.3 5.5-10.4 11.2-9.8 16.1 1.7 14.5-6.6 32.5 12.6 41.9.1-1.6.3-3.6.4-5.1 4.2.1 8 .1 12 .1zM202.7 39.6c5.6 1.5 10.2 2.7 16.5 4.3-.2 9-3.2 16.5 1.8 24.8 4.3-4.5 7 1.8 10.8 1.6 8.2-.3 16.5 0 24.7-.4 3.5-.3 6.8-6 9.6-6.8 8.2-1.6 11-8.1 15.8-14.4-16.8-3.1-30 13.6-46.7 5.2 3.2-10 5.7-20.2 6.5-30.6.4-7.8-4.7-11.8-12.5-11.3-12.9.9-16.1 3.5-15.2 12.6-10.1-.2-8.5 8.4-11.3 15z"/><path style="fill:rgb(255,106,102,.09)" d="M159.4 18.1c-3.9 13.8-15.6 21.2-27.9 20.3-22.1-2-30-20.2-27.9-38.4h-2.9c-.1.4-.1.8-.2 1.2-4.3 30.3 22.7 50.3 51.2 38.4 7.4-4 11.2-13.2 15.5-20.3-5.9 13.7-7.6 27.4-3.5 41.8.5 1.7-.5 4.1-1.5 5.8-3.3 5.5-10.4 11.2-9.8 16.1 1.7 14.5-6.6 32.5 12.6 41.9.1-1.6.3-3.6.4-5.1h12.2c.3-1.8.6-3.7 1-6.4-13.2-.3-12-9.4-11.8-18.2.1-6.6 2-11.3 8.1-15.2 16.3-10.2 22.3-27.1 26.6-44.5 2.3-9.2 5.1-18.6 14.1-22.5 7.1-3.1 12.1-7.8 16.4-13.2h-62.8c-4.4 5.3-7.8 11.1-9.8 18.3zM299.4 169.2c-5.3-6.3-13.8-5.6-21.4 0-9.6 7.2-19.7 13.7-29.7 20.2-2.6 1.3-6.2-1.4-5.8-4.1 3.1-8.1-3.6-7.7-8-9.5-13.1-6.2-9.4-5.1 1-10.7-3.3-4.9-6.8-7.4-11.8-11.3 1.8-.5 2.8-1.2 3.6-1 5.4 1.4 10.7 1.8 11.8-5.3 1-6.5-2.8-9.3-9.2-10.3-7.6-1.1-14.9-3.3-22.5-5.1.7-2.1 1.3-3.7 2-5.6-8.1-.5-15.6-1.1-23.1-1.4-2.6-.1-6.6 0-7.7 1.6-5 7-9.2 14.6-13.4 22.1-.6 1.1-.2 4.1.7 4.5 7.3 3.6 1 6.6.5 7.8 1.1 4 2.3 6.2 2.1 8.2-.4 4.4-1.9 8.7-2.4 13.1-.5 4.3.9 7.8 4.9 7.8l2.8-7c1.7 1.6 4.8 3.2 4.9 4.8.1 4.2-1.2 8.5-2 12.9 1.1-.4 2.7-.9 4.8-1.7-.1 4.1-5.4 8.7 2.6 11.2 2.1.7 3.3 6.2 3.8 9.7 1.3 8.7-2.3 15.7-9.3 21.1-9.1 7.1-16 15.2-19.3 27-3.9 13.8-15.6 21.2-27.9 20.3-33.9-3.1-34.6-44.3-16.4-65.3 9.6-11.4 23.5-9.4 30 4.4-2.2 1.6-4.5 3.3-5.8 4.2.4 3.8.8 7.1 1.2 10.3 1.8-.5 3.8-1.3 5.4.2-2.5 4.4-4.2 9.5-7.6 12.9-4.8 4.8-6.6 10.6-2.4 15.5 1.1 1.2 3.4 1.4 5.2 2 .6-1.6 1.1-3.3 1.7-4.9h-7c1.4-3.1 2-5.9 3.6-7.8 2.7-3.2 6.7-5.6 9.1-9 2.1-3.1 7.2-6 3-11.1-.5-.7.2-2.4.4-3.6 1.5.4 3 .8 4.4 1.2 1-3 2-5.9 2.7-7.9-2.3-1.1-5.7-1.6-6.3-3.2-2.6-6.9-8.2-8.8-14.5-11-10.9-3.8-20.4-2.8-26.5 7.1-5.3 8.7-9.7 18.8-11.1 28.8-4.3 30.3 22.7 50.3 51.2 38.4 7.4-4 11.2-13.2 15.5-20.3-5.9 13.7-7.6 27.4-3.5 41.8.5 1.7-.5 4.1-1.5 5.8-3.3 5.5-10.4 11.2-9.8 16.1 1.7 14.5-6.6 32.5 12.6 41.9.1-1.6.3-3.6.4-5.1h12.2c.3-1.8.6-3.7 1-6.4-13.2-.3-12-9.4-11.8-18.2.1-6.6 2-11.3 8.1-15.2 16.3-10.2 22.3-27.1 26.6-44.5 2.3-9.2 5.1-18.6 14.1-22.5 16.8-7.3 22.3-24.3 33.1-36.5 2.7-3.1 2.3-9.1 2.7-13.9.1-1.1-2.1-2.4-3.9-4.5 18.6-3.7 27.4-25.4 48.8-26.2-2.7-1.4-5.5-2.8-9.7-4.9h12.2l1.2-1.8c-2.5-1.5-5.1-2.9-9.3-5.3 4.5-.4 6.5-.6 8.7-.8z"/><path style="fill:rgb(255,106,102,.09)" d="M281.6 242.3c2.6-9.7 9.7-18.9 3.5-31.5-5 6.2-9.5 11.9-15.1 18.9-4.8-1.5-11.3-4.8-15.9-8-1.8 5.2-3.5 9.9-5.3 15 5.4 3.6 11.2 7.1 16.6 10.9 5.2 2.6 14.7.2 16.2-5.3zM254 471.6c-1.8 5.2-3.5 9.9-5.3 15 5.4 3.6 11.2 7.1 16.6 10.9 5.2 2.6 14.7.2 16.2-5.3 2.6-9.7 9.7-18.9 3.5-31.5-5 6.2-9.5 11.9-15.1 18.9-4.8-1.5-11.3-4.8-15.9-8z"/><g><path style="fill:rgb(255,106,102,.09)" d="M152.5 476.3c-2.6-6.9-8.2-8.8-14.5-11-10.9-3.8-20.4-2.8-26.5 7.1-5.1 8.3-9.3 18-10.9 27.6h2.9c1.1-9.8 5.2-19.6 11.6-26.9 9.6-11.4 23.5-9.4 30 4.4-2.2 1.6-4.5 3.3-5.8 4.2.4 3.8.8 7.1 1.2 10.3 1.8-.5 3.8-1.3 5.4.2-1.4 2.5-2.6 5.3-4 7.8h7.3c2.3-2.7 6.1-5.6 2.2-10.2-.5-.7.2-2.4.4-3.6 1.5.4 3 .8 4.4 1.2 1-3 2-5.9 2.7-7.9-2.3-1.1-5.8-1.6-6.4-3.2zM85 85.8c-5 6.2-9.5 11.9-15.1 18.9-4.8-1.5-11.3-4.8-15.9-8-1.8 5.2-3.5 9.9-5.3 15 5.4 3.6 11.2 7.1 16.6 10.9 5.2 2.6 14.7.2 16.2-5.3 2.6-9.7 9.8-19 3.5-31.5zM15.6 388.2c16.8-7.3 22.3-24.3 33.1-36.5 2.7-3.1 2.3-9.1 2.7-13.9.1-1.1-2.1-2.4-3.9-4.5 18.6-3.7 27.4-25.4 48.8-26.2-2.7-1.4-5.5-2.8-9.7-4.9h12.2l1.2-1.8c-2.5-1.5-5.1-2.9-9.3-5.3 4.5-.5 6.4-.7 8.7-.9-5.3-6.3-13.8-5.6-21.4 0-9.6 7.2-19.7 13.7-29.7 20.2-2.6 1.3-6.2-1.4-5.8-4.1 3.1-8.1-3.6-7.7-8-9.5-13.1-6.2-9.4-5.1 1-10.7-3.3-4.9-6.8-7.4-11.8-11.3 1.8-.5 2.8-1.2 3.6-1 5.4 1.4 10.7 1.8 11.8-5.3 1-6.5-2.8-9.3-9.2-10.3-7.5-1.2-14.9-3.4-22.4-5.2.7-2.1 1.3-3.7 2-5.6-3.2-.2-6.4-.4-9.5-.6v165.5c.5-1.8 1-3.7 1.5-5.6 2.3-9.2 5.1-18.6 14.1-22.5z"/><path style="fill:rgb(255,106,102,.09)" d="M85 335.8c-5 6.2-9.5 11.9-15.1 18.9-4.8-1.5-11.3-4.8-15.9-8-1.8 5.2-3.5 9.9-5.3 15 5.4 3.6 11.2 7.1 16.6 10.9 5.2 2.6 14.7.2 16.2-5.3 2.6-9.7 9.8-19 3.5-31.5zM21 443.7c4.3-4.5 7 1.8 10.8 1.6 8.2-.3 16.5 0 24.7-.4 3.5-.3 6.8-6 9.6-6.8 8.2-1.6 11-8.1 15.8-14.4-16.8-3.1-30 13.6-46.7 5.2 3.2-10 5.7-20.2 6.5-30.6.4-7.8-4.7-11.8-12.5-11.3-12.9.9-16.1 3.5-15.2 12.6-10.2-.2-8.6 8.3-11.4 15 5.6 1.5 10.2 2.7 16.5 4.3-.2 9-3.2 16.5 1.9 24.8zM21 193.7c4.3-4.5 7 1.8 10.8 1.6 8.2-.3 16.5 0 24.7-.4 3.5-.3 6.8-6 9.6-6.8 8.2-1.6 11-8.1 15.8-14.4-16.8-3.1-30 13.6-46.7 5.2 3.2-10 5.7-20.2 6.5-30.6.4-7.8-4.7-11.8-12.5-11.3-12.9.9-16.1 3.5-15.2 12.6-10.2-.2-8.6 8.3-11.4 15 5.6 1.5 10.2 2.7 16.5 4.3-.2 9-3.2 16.5 1.9 24.8zM374.8 205.1c14.5-9.1 20.9-23.6 25.2-38.9V.7c-4.6-.3-9.1-.6-13.6-.7-2.6-.1-6.6 0-7.7 1.6-5 7-9.2 14.6-13.4 22.1-.6 1.1-.2 4.1.7 4.5 7.3 3.6 1 6.6.5 7.8 1.1 4 2.3 6.2 2.1 8.2-.4 4.4-1.9 8.7-2.4 13.1-.5 4.3.9 7.8 4.9 7.8l2.8-7c1.7 1.6 4.8 3.2 4.9 4.8.1 4.2-1.2 8.5-2 12.9 1.1-.4 2.7-.9 4.8-1.7-.1 4.1-5.4 8.7 2.6 11.2 2.1.7 3.3 6.2 3.8 9.7 1.3 8.7-2.3 15.7-9.3 21.1-9.1 7.1-16 15.2-19.3 27-3.9 13.8-15.6 21.2-27.9 20.3-33.9-3.1-34.6-44.3-16.4-65.3 9.6-11.4 23.5-9.4 30 4.4-2.2 1.6-4.5 3.3-5.8 4.2.4 3.8.8 7.1 1.2 10.3 1.8-.5 3.8-1.3 5.4.2-2.5 4.4-4.2 9.5-7.6 12.9-4.8 4.8-6.6 10.6-2.4 15.5 1.1 1.2 3.4 1.4 5.2 2 .6-1.6 1.1-3.3 1.7-4.9h-7c1.4-3.1 2-5.9 3.6-7.8 2.7-3.2 6.7-5.6 9.1-9 2.1-3.1 7.2-6 3-11.1-.5-.7.2-2.4.4-3.6 1.5.4 3 .8 4.4 1.2 1-3 2-5.9 2.7-7.9-2.3-1.1-5.7-1.6-6.3-3.2-2.6-6.9-8.2-8.8-14.5-11-10.9-3.8-20.4-2.8-26.5 7.1-5.3 8.7-9.7 18.8-11.1 28.8-4.3 30.3 22.7 50.3 51.2 38.4 7.4-4 11.2-13.2 15.5-20.3-5.9 13.7-7.6 27.4-3.5 41.8.5 1.7-.5 4.1-1.5 5.8-3.3 5.5-10.4 11.2-9.8 16.1 1.7 14.5-6.6 32.5 12.6 41.9.1-1.6.3-3.6.4-5.1h12.2c.3-1.8.6-3.7 1-6.4-13.2-.3-12-9.4-11.8-18.2 0-6.5 1.8-11.2 7.9-15.1z"/><path style="fill:rgb(255,106,102,.09)" d="M0 .7v165.5c.5-1.8 1-3.7 1.5-5.6 2.3-9.2 5.1-18.6 14.1-22.5 16.8-7.3 22.3-24.3 33.1-36.5 2.7-3.1 2.3-9.1 2.7-13.9.1-1.1-2.1-2.4-3.9-4.5 18.6-3.6 27.3-25.2 48.7-26-2.7-1.4-5.5-2.8-9.7-4.9h12.2l1.2-1.8c-2.5-1.5-5.1-2.9-9.3-5.3 4.5-.5 6.4-.7 8.7-.9-5.3-6.3-13.8-5.6-21.4 0-9.6 7.2-19.7 13.7-29.7 20.2-2.6 1.3-6.2-1.4-5.8-4.1 3.1-8.1-3.6-7.7-8-9.5-13.1-6.2-9.4-5.1 1-10.7-3.3-4.9-6.8-7.4-11.8-11.3 1.8-.5 2.8-1.2 3.6-1 5.4 1.4 10.7 1.8 11.8-5.3 1-6.5-2.8-9.3-9.2-10.3C22.4 11 15 8.8 7.5 7c.7-2.1 1.3-3.7 2-5.6C6.2 1.2 3.1 1 0 .7zM251.4 462.8c.1-1.1-2.1-2.4-3.9-4.5 18.6-3.7 27.4-25.4 48.8-26.2-2.7-1.4-5.5-2.8-9.7-4.9h12.2l1.2-1.8c-2.5-1.5-5.1-2.9-9.3-5.3 4.5-.5 6.4-.7 8.7-.9-5.3-6.3-13.8-5.6-21.4 0-9.6 7.2-19.7 13.7-29.7 20.2-2.6 1.3-6.2-1.4-5.8-4.1 3.1-8.1-3.6-7.7-8-9.5-13.1-6.2-9.4-5.1 1-10.7-3.3-4.9-6.8-7.4-11.8-11.3 1.8-.5 2.8-1.2 3.6-1 5.4 1.4 10.7 1.8 11.8-5.3 1-6.5-2.8-9.3-9.2-10.3-7.6-1.1-14.9-3.3-22.5-5.1.7-2.1 1.3-3.7 2-5.6-8.1-.5-15.6-1.1-23.1-1.4-2.6-.1-6.6 0-7.7 1.6-5 7-9.2 14.6-13.4 22.1-.6 1.1-.2 4.1.7 4.5 7.3 3.6 1 6.6.5 7.8 1.1 4 2.3 6.2 2.1 8.2-.4 4.4-1.9 8.7-2.4 13.1-.5 4.3.9 7.8 4.9 7.8l2.8-7c1.7 1.6 4.8 3.2 4.9 4.8.1 4.2-1.2 8.5-2 12.9 1.1-.4 2.7-.9 4.8-1.7-.1 4.1-5.4 8.7 2.6 11.2 2.1.7 3.3 6.2 3.8 9.7 1.3 8.7-2.3 15.7-9.3 21.1-3.6 2.8-6.8 5.7-9.6 8.9h63c5.9-7.5 10.4-16.2 16.7-23.3 2.7-3.2 2.3-9.2 2.7-14zM202.7 289.6c5.6 1.5 10.2 2.7 16.5 4.3-.2 9-3.2 16.5 1.8 24.8 4.3-4.5 7 1.8 10.8 1.6 8.2-.3 16.5 0 24.7-.4 3.5-.3 6.8-6 9.6-6.8 8.2-1.6 11-8.1 15.8-14.4-16.8-3.1-30 13.6-46.7 5.2 3.2-10 5.7-20.2 6.5-30.6.4-7.8-4.7-11.8-12.5-11.3-12.9.9-16.1 3.5-15.2 12.6-10.1-.2-8.5 8.4-11.3 15zM148.4.9c.2-.3.5-.6.7-.9h-7.3c-1 1.9-2.2 3.6-3.6 5.1-4.8 4.8-6.6 10.6-2.4 15.5 1.1 1.2 3.4 1.4 5.2 2 .6-1.6 1.1-3.3 1.7-4.9h-7c1.4-3.1 2-5.9 3.6-7.8 2.8-3.2 6.7-5.5 9.1-9zM377.5 494.9c.3-1.8.6-3.7 1-6.4-13.2-.3-12-9.4-11.8-18.2.1-6.6 2-11.3 8.1-15.2 14.5-9.1 20.9-23.6 25.2-38.9V250.7c-4.6-.3-9.1-.6-13.6-.7-2.6-.1-6.6 0-7.7 1.6-5 7-9.2 14.6-13.4 22.1-.6 1.1-.2 4.1.7 4.5 7.3 3.6 1 6.6.5 7.8 1.1 4 2.3 6.2 2.1 8.2-.4 4.4-1.9 8.7-2.4 13.1-.5 4.3.9 7.8 4.9 7.8l2.8-7c1.7 1.6 4.8 3.2 4.9 4.8.1 4.2-1.2 8.5-2 12.9 1.1-.4 2.7-.9 4.8-1.7-.1 4.1-5.4 8.7 2.6 11.2 2.1.7 3.3 6.2 3.8 9.7 1.3 8.7-2.3 15.7-9.3 21.1-9.1 7.1-16 15.2-19.3 27-3.9 13.8-15.6 21.2-27.9 20.3-33.9-3.1-34.6-44.3-16.4-65.3 9.6-11.4 23.5-9.4 30 4.4-2.2 1.6-4.5 3.3-5.8 4.2.4 3.8.8 7.1 1.2 10.3 1.8-.5 3.8-1.3 5.4.2-2.5 4.4-4.2 9.5-7.6 12.9-4.8 4.8-6.6 10.6-2.4 15.5 1.1 1.2 3.4 1.4 5.2 2 .6-1.6 1.1-3.3 1.7-4.9h-7c1.4-3.1 2-5.9 3.6-7.8 2.7-3.2 6.7-5.6 9.1-9 2.1-3.1 7.2-6 3-11.1-.5-.7.2-2.4.4-3.6 1.5.4 3 .8 4.4 1.2 1-3 2-5.9 2.7-7.9-2.3-1.1-5.7-1.6-6.3-3.2-2.6-6.9-8.2-8.8-14.5-11-10.9-3.8-20.4-2.8-26.5 7.1-5.3 8.7-9.7 18.8-11.1 28.8-4.3 30.3 22.7 50.3 51.2 38.4 7.4-4 11.2-13.2 15.5-20.3-5.9 13.7-7.6 27.4-3.5 41.8.5 1.7-.5 4.1-1.5 5.8-3.3 5.5-10.4 11.2-9.8 16.1 1.7 14.5-6.6 32.5 12.6 41.9.1-1.6.3-3.6.4-5.1 4.2.1 8 .1 12 .1zM202.7 39.6c5.6 1.5 10.2 2.7 16.5 4.3-.2 9-3.2 16.5 1.8 24.8 4.3-4.5 7 1.8 10.8 1.6 8.2-.3 16.5 0 24.7-.4 3.5-.3 6.8-6 9.6-6.8 8.2-1.6 11-8.1 15.8-14.4-16.8-3.1-30 13.6-46.7 5.2 3.2-10 5.7-20.2 6.5-30.6.4-7.8-4.7-11.8-12.5-11.3-12.9.9-16.1 3.5-15.2 12.6-10.1-.2-8.5 8.4-11.3 15z"/><path style="fill:rgb(255,106,102,.09)" d="M159.4 18.1c-3.9 13.8-15.6 21.2-27.9 20.3-22.1-2-30-20.2-27.9-38.4h-2.9c-.1.4-.1.8-.2 1.2-4.3 30.3 22.7 50.3 51.2 38.4 7.4-4 11.2-13.2 15.5-20.3-5.9 13.7-7.6 27.4-3.5 41.8.5 1.7-.5 4.1-1.5 5.8-3.3 5.5-10.4 11.2-9.8 16.1 1.7 14.5-6.6 32.5 12.6 41.9.1-1.6.3-3.6.4-5.1h12.2c.3-1.8.6-3.7 1-6.4-13.2-.3-12-9.4-11.8-18.2.1-6.6 2-11.3 8.1-15.2 16.3-10.2 22.3-27.1 26.6-44.5 2.3-9.2 5.1-18.6 14.1-22.5 7.1-3.1 12.1-7.8 16.4-13.2h-62.8c-4.4 5.3-7.8 11.1-9.8 18.3zM299.4 169.2c-5.3-6.3-13.8-5.6-21.4 0-9.6 7.2-19.7 13.7-29.7 20.2-2.6 1.3-6.2-1.4-5.8-4.1 3.1-8.1-3.6-7.7-8-9.5-13.1-6.2-9.4-5.1 1-10.7-3.3-4.9-6.8-7.4-11.8-11.3 1.8-.5 2.8-1.2 3.6-1 5.4 1.4 10.7 1.8 11.8-5.3 1-6.5-2.8-9.3-9.2-10.3-7.6-1.1-14.9-3.3-22.5-5.1.7-2.1 1.3-3.7 2-5.6-8.1-.5-15.6-1.1-23.1-1.4-2.6-.1-6.6 0-7.7 1.6-5 7-9.2 14.6-13.4 22.1-.6 1.1-.2 4.1.7 4.5 7.3 3.6 1 6.6.5 7.8 1.1 4 2.3 6.2 2.1 8.2-.4 4.4-1.9 8.7-2.4 13.1-.5 4.3.9 7.8 4.9 7.8l2.8-7c1.7 1.6 4.8 3.2 4.9 4.8.1 4.2-1.2 8.5-2 12.9 1.1-.4 2.7-.9 4.8-1.7-.1 4.1-5.4 8.7 2.6 11.2 2.1.7 3.3 6.2 3.8 9.7 1.3 8.7-2.3 15.7-9.3 21.1-9.1 7.1-16 15.2-19.3 27-3.9 13.8-15.6 21.2-27.9 20.3-33.9-3.1-34.6-44.3-16.4-65.3 9.6-11.4 23.5-9.4 30 4.4-2.2 1.6-4.5 3.3-5.8 4.2.4 3.8.8 7.1 1.2 10.3 1.8-.5 3.8-1.3 5.4.2-2.5 4.4-4.2 9.5-7.6 12.9-4.8 4.8-6.6 10.6-2.4 15.5 1.1 1.2 3.4 1.4 5.2 2 .6-1.6 1.1-3.3 1.7-4.9h-7c1.4-3.1 2-5.9 3.6-7.8 2.7-3.2 6.7-5.6 9.1-9 2.1-3.1 7.2-6 3-11.1-.5-.7.2-2.4.4-3.6 1.5.4 3 .8 4.4 1.2 1-3 2-5.9 2.7-7.9-2.3-1.1-5.7-1.6-6.3-3.2-2.6-6.9-8.2-8.8-14.5-11-10.9-3.8-20.4-2.8-26.5 7.1-5.3 8.7-9.7 18.8-11.1 28.8-4.3 30.3 22.7 50.3 51.2 38.4 7.4-4 11.2-13.2 15.5-20.3-5.9 13.7-7.6 27.4-3.5 41.8.5 1.7-.5 4.1-1.5 5.8-3.3 5.5-10.4 11.2-9.8 16.1 1.7 14.5-6.6 32.5 12.6 41.9.1-1.6.3-3.6.4-5.1h12.2c.3-1.8.6-3.7 1-6.4-13.2-.3-12-9.4-11.8-18.2.1-6.6 2-11.3 8.1-15.2 16.3-10.2 22.3-27.1 26.6-44.5 2.3-9.2 5.1-18.6 14.1-22.5 16.8-7.3 22.3-24.3 33.1-36.5 2.7-3.1 2.3-9.1 2.7-13.9.1-1.1-2.1-2.4-3.9-4.5 18.6-3.7 27.4-25.4 48.8-26.2-2.7-1.4-5.5-2.8-9.7-4.9h12.2l1.2-1.8c-2.5-1.5-5.1-2.9-9.3-5.3 4.5-.4 6.5-.6 8.7-.8z"/><path style="fill:rgb(255,106,102,.09)" d="M281.6 242.3c2.6-9.7 9.7-18.9 3.5-31.5-5 6.2-9.5 11.9-15.1 18.9-4.8-1.5-11.3-4.8-15.9-8-1.8 5.2-3.5 9.9-5.3 15 5.4 3.6 11.2 7.1 16.6 10.9 5.2 2.6 14.7.2 16.2-5.3zM254 471.6c-1.8 5.2-3.5 9.9-5.3 15 5.4 3.6 11.2 7.1 16.6 10.9 5.2 2.6 14.7.2 16.2-5.3 2.6-9.7 9.7-18.9 3.5-31.5-5 6.2-9.5 11.9-15.1 18.9-4.8-1.5-11.3-4.8-15.9-8z"/></g></svg>